<svg xmlns="http://www.w3.org/2000/svg">
  <symbol viewBox="0 0 181 181" id="contacts__tel">
    <path d="M169.393,167.37l-14.919,9.848c-9.604,6.614-50.531,14.049-106.211-53.404
				C-5.415,58.873,9.934,22.86,17.134,14.555L29.523,1.678c2.921-2.491,7.328-2.198,9.839,0.811l32.583,38.543l0.02,0.02
				c2.384,2.824,2.306,7.22-0.83,9.868v0.029l-14.44,10.415c-5.716,5.667-0.733,14.587,5.11,23.204l27.786,32.808
				c12.926,12.477,20.009,18.241,26.194,14.118l12.008-13.395c2.941-2.472,7.328-2.169,9.839,0.821l32.603,38.543v0.02
				C172.607,160.316,172.519,164.703,169.393,167.37z"/>
  </symbol>
  <symbol viewBox="0 0 32 32" id="contacts__instagram">
    <path d="M23.4 4H8.6C6.1 4 4 6.1 4 8.6v14.7C4 25.9 6.1 28 8.6 28h14.7c2.6 0 4.6-2.1 4.6-4.6V8.6c.1-2.5-2-4.6-4.5-4.6zm1.3 2.8h.5v4h-4.1V6.7l3.6.1zm-12.1 6.7c.8-1.1 2-1.8 3.4-1.8s2.7.7 3.4 1.8c.5.7.8 1.5.8 2.5 0 2.3-1.9 4.2-4.2 4.2s-4.2-1.9-4.2-4.2c0-.9.3-1.8.8-2.5zm13.1 9.9c0 1.3-1 2.3-2.3 2.3H8.6c-1.3 0-2.3-1-2.3-2.3v-9.8h3.6c-.3.8-.5 1.6-.5 2.5 0 3.6 2.9 6.6 6.6 6.6 3.6 0 6.6-2.9 6.6-6.6 0-.9-.2-1.7-.5-2.5h3.6v9.8z"></path>
  </symbol>
  <symbol viewBox="0 0 32 32" id="contacts__vk">
    <path d="M15.83 25.176h1.63s.45-.09.723-.362c.27-.27.18-.724.18-.724s0-2.17.996-2.533c.994-.362 2.26 2.08 3.708 3.076.995.724 1.81.543 1.81.543l3.618-.09s1.9-.09.995-1.628c-.09-.09-.542-1.086-2.713-3.166-2.262-2.17-1.99-1.81.814-5.428 1.72-2.262 2.353-3.62 2.172-4.16-.18-.544-1.447-.453-1.447-.453h-4.16s-.272 0-.544.09c-.18.09-.36.453-.36.453s-.634 1.72-1.54 3.257c-1.808 3.076-2.532 3.257-2.894 3.076-.724-.452-.543-1.81-.543-2.804 0-2.985.452-4.252-.905-4.614-.452-.09-.814-.18-1.9-.18-1.447 0-2.714 0-3.438.36-.452.272-.814.725-.633.815.27 0 .905.18 1.176.633.452.543.452 1.9.452 1.9s.27 3.528-.543 3.98c-.543.27-1.357-.27-2.985-3.166-.814-1.447-1.447-3.076-1.447-3.076s.09-.27-.18-.452-.634-.27-.634-.27l-3.89.09s-.543 0-.814.27c-.18.27 0 .724 0 .724S5.608 18.483 9.045 22.1c3.166 3.258 6.785 3.077 6.785 3.077z"></path>
  </symbol>
  <symbol viewBox="0 0 308 308" id="contacts__whatsapp">
    <g>
      <path d="M227.904,176.981c-0.6-0.288-23.054-11.345-27.044-12.781c-1.629-0.585-3.374-1.156-5.23-1.156
		c-3.032,0-5.579,1.511-7.563,4.479c-2.243,3.334-9.033,11.271-11.131,13.642c-0.274,0.313-0.648,0.687-0.872,0.687
		c-0.201,0-3.676-1.431-4.728-1.888c-24.087-10.463-42.37-35.624-44.877-39.867c-0.358-0.61-0.373-0.887-0.376-0.887
		c0.088-0.323,0.898-1.135,1.316-1.554c1.223-1.21,2.548-2.805,3.83-4.348c0.607-0.731,1.215-1.463,1.812-2.153
		c1.86-2.164,2.688-3.844,3.648-5.79l0.503-1.011c2.344-4.657,0.342-8.587-0.305-9.856c-0.531-1.062-10.012-23.944-11.02-26.348
		c-2.424-5.801-5.627-8.502-10.078-8.502c-0.413,0,0,0-1.732,0.073c-2.109,0.089-13.594,1.601-18.672,4.802
		c-5.385,3.395-14.495,14.217-14.495,33.249c0,17.129,10.87,33.302,15.537,39.453c0.116,0.155,0.329,0.47,0.638,0.922
		c17.873,26.102,40.154,45.446,62.741,54.469c21.745,8.686,32.042,9.69,37.896,9.69c0.001,0,0.001,0,0.001,0
		c2.46,0,4.429-0.193,6.166-0.364l1.102-0.105c7.512-0.666,24.02-9.22,27.775-19.655c2.958-8.219,3.738-17.199,1.77-20.458
		C233.168,179.508,230.845,178.393,227.904,176.981z"/>
      <path d="M156.734,0C73.318,0,5.454,67.354,5.454,150.143c0,26.777,7.166,52.988,20.741,75.928L0.212,302.716
		c-0.484,1.429-0.124,3.009,0.933,4.085C1.908,307.58,2.943,308,4,308c0.405,0,0.813-0.061,1.211-0.188l79.92-25.396
		c21.87,11.685,46.588,17.853,71.604,17.853C240.143,300.27,308,232.923,308,150.143C308,67.354,240.143,0,156.734,0z
		 M156.734,268.994c-23.539,0-46.338-6.797-65.936-19.657c-0.659-0.433-1.424-0.655-2.194-0.655c-0.407,0-0.815,0.062-1.212,0.188
		l-40.035,12.726l12.924-38.129c0.418-1.234,0.209-2.595-0.561-3.647c-14.924-20.392-22.813-44.485-22.813-69.677
		c0-65.543,53.754-118.867,119.826-118.867c66.064,0,119.812,53.324,119.812,118.867
		C276.546,215.678,222.799,268.994,156.734,268.994z"/>
    </g>
  </symbol>
  <symbol viewBox="0 0 60 60" id="contacts__email">
    <path d="M28 0H4C1.8 0 0 1.8 0 4V17C0 19.2 1.8 21 4 21H28C30.2 21 32 19.2 32 17V4C32 1.8 30.2 0 28 0ZM2 5.3L9 10.6L2 15.9V5.3ZM30 17C30 18.1 29.1 19 28 19H4C2.9 19 2 18.1 2 17L9.8 11.1L14.2 14.4C14.7 14.8 15.4 15 16 15C16.6 15 17.3 14.8 17.8 14.4L22.2 11.1L30 17ZM30 15.8L23 10.5L30 5.2V15.8ZM17.2 13.6C16.8 13.9 16.4 14 16 14C15.6 14 15.1 13.9 14.8 13.6L10.7 10.5L9.9 9.9L2 4C2 2.9 2.9 2 4 2H28C29.1 2 30 2.9 30 4L17.2 13.6Z"/>
  </symbol>
  <symbol viewBox="0 0 32 32" id="contacts__telegram">
    <path d="M 23.326 28.341 C 23.121 28.341 22.919 28.28 22.743 28.163 L 16.144 23.686 L 12.605 26.233 C 12.013 26.658 11.179 26.359 10.992 25.654 L 9.217 18.921 L 2.866 16.491 C 2.119 16.206 1.963 15.218 2.584 14.715 C 2.664 14.648 2.756 14.594 2.853 14.557 L 26.998 4.948 C 27.734 4.636 28.533 5.239 28.436 6.033 C 28.431 6.059 28.428 6.087 28.422 6.114 L 24.348 27.498 C 24.254 27.986 23.826 28.341 23.326 28.341 Z M 16.723 21.568 L 22.604 25.557 L 25.773 8.917 L 14.319 19.938 L 16.696 21.55 C 16.706 21.556 16.714 21.562 16.723 21.568 Z M 11.83 20.683 L 12.619 23.664 L 14.313 22.444 L 12.092 20.937 C 11.991 20.87 11.902 20.782 11.83 20.683 Z M 6.096 15.501 L 10.456 17.169 C 10.768 17.289 11.003 17.551 11.089 17.874 L 11.642 19.97 C 11.668 19.727 11.78 19.5 11.956 19.329 L 22.868 8.828 L 6.096 15.501 Z"></path>
  </symbol>
</svg>
